<svg width="30" height="34" viewBox="0 0 30 34" fill="none" xmlns="http://www.w3.org/2000/svg">
<path d="M30 24.1594H28.0766V21.3174H25.0061C24.3684 19.2965 23.1491 17.483 21.5186 16.151C20.6367 15.4306 19.6702 14.8688 18.6441 14.475C20.114 13.3209 21.0641 11.5018 21.0641 9.45874V9.36951H22.5326V7.3947H21.3209C21.2378 4.91043 19.6939 2.71591 17.3625 1.70322V0H12.482V1.71515C11.4377 2.14342 10.5381 2.815 9.85314 3.68477C9.02272 4.73975 8.56548 6.01859 8.52306 7.39496H7.31165V9.36951H8.78009V9.45874C8.78009 11.5077 9.73573 13.3313 11.2128 14.4849C10.196 14.8784 9.23809 15.4363 8.36324 16.151C6.7327 17.483 5.51347 19.2967 4.87569 21.3174H1.86837V24.1594H0V30.9189H1.86837V34H28.0766V30.9189H30V24.1594ZM11.9121 16.3253C12.8685 15.9583 13.8883 15.7691 14.9409 15.7691C16.0243 15.7691 17.0726 15.9697 18.0533 16.3582V17.8202H11.9121V16.3253ZM12.482 3.91434V5.48085H14.4039V1.97455H15.4406V5.48085H17.3625V3.92731C18.5603 4.71822 19.3276 5.98901 19.3977 7.39496H10.4462C10.5129 5.93532 11.2698 4.67308 12.482 3.91434ZM10.702 9.36951H19.1422V9.45874C19.1422 11.8496 17.2491 13.7946 14.9222 13.7946C12.5951 13.7946 10.702 11.8496 10.702 9.45874V9.36951ZM9.55925 17.6967C9.70013 17.5816 9.84405 17.4713 9.98998 17.3663V19.7948H19.9752V17.4275C20.0926 17.5141 20.2085 17.6036 20.3223 17.6967C21.4918 18.6519 22.401 19.9094 22.9598 21.3177H6.92181C7.48056 19.9097 8.39 18.6521 9.55925 17.6967ZM2.60764 28.9443H1.9219V26.1342H2.60764C3.36181 26.1342 3.97534 26.7643 3.97534 27.5391C3.97534 28.314 3.36181 28.9443 2.60764 28.9443ZM3.79052 30.6921C5.02163 30.2029 5.89724 28.9747 5.89724 27.5391C5.89724 26.1039 5.02163 24.8756 3.79052 24.3864V23.2923H14.0115V32.0252H3.79052V30.6921ZM15.9334 32.0255V23.2923H26.1544V24.4087C24.9526 24.9122 24.1028 26.1254 24.1028 27.5394C24.1028 28.9531 24.9526 30.1661 26.1544 30.6698V32.0255H15.9334ZM28.0781 28.9443H27.3924C26.6384 28.9443 26.0249 28.314 26.0249 27.5391C26.0249 26.7643 26.6384 26.1342 27.3924 26.1342H28.0781V28.9443Z" fill="#1E1E1E"/>
</svg>
