<svg width="30" height="30" viewBox="0 0 30 30" fill="none" xmlns="http://www.w3.org/2000/svg">
<path d="M12.3013 0C19.0842 0 24.6026 5.51836 24.6026 12.3013C24.6026 15.2718 23.5441 17.9997 21.7847 20.1279L30 28.3432L28.3432 30L20.1279 21.7847C17.9997 23.5441 15.2718 24.6026 12.3013 24.6026C5.51836 24.6026 0 19.0842 0 12.3013C0 5.51836 5.5183 0 12.3013 0ZM12.3013 22.2595C17.7922 22.2595 22.2595 17.7922 22.2595 12.3013C22.2595 6.81035 17.7922 2.34311 12.3013 2.34311C6.81035 2.34311 2.34311 6.81035 2.34311 12.3013C2.34311 17.7922 6.81035 22.2595 12.3013 22.2595Z" fill="white"/>
</svg>
