<svg width="30" height="23" viewBox="0 0 30 23" fill="none" xmlns="http://www.w3.org/2000/svg">
<path d="M30 8.78906H28.125V3.51562H24.6094V0H2.63672C1.18283 0 0 1.18283 0 2.63672V18.457C0 20.8802 1.97139 22.8516 4.39453 22.8516H28.125V17.5781H30V8.78906ZM2.63672 1.75781H22.8516V3.51562H2.63672C2.15209 3.51562 1.75781 3.12135 1.75781 2.63672C1.75781 2.15209 2.15209 1.75781 2.63672 1.75781ZM26.3672 21.0938H4.39453C2.94064 21.0938 1.75781 19.9109 1.75781 18.457V5.12227C2.03291 5.21982 2.32857 5.27344 2.63672 5.27344H26.3672V8.78906H21.9727C19.5495 8.78906 17.5781 10.7604 17.5781 13.1836C17.5781 15.6067 19.5495 17.5781 21.9727 17.5781H26.3672V21.0938ZM28.2422 15.8203H21.9727C20.5188 15.8203 19.3359 14.6375 19.3359 13.1836C19.3359 11.7297 20.5188 10.5469 21.9727 10.5469H28.2422V15.8203Z" fill="black"/>
<path d="M21.0938 12.3047H22.8516V14.0625H21.0938V12.3047Z" fill="black"/>
</svg>
