<svg width="30" height="30" viewBox="0 0 30 30" fill="none" xmlns="http://www.w3.org/2000/svg">
<path d="M16.1719 13.4766H13.8281V15.8203H16.1719V13.4766Z" fill="#1E1E1E"/>
<path d="M26.4844 2.34375H25.0781V0H22.7344V2.34375H7.26562V0H4.92188V2.34375H3.51562C1.57711 2.34375 0 3.92086 0 5.85938V26.4844C0 28.4229 1.57711 30 3.51562 30H15.572C14.7618 29.3312 14.0561 28.5404 13.4824 27.6562H3.51562C2.86945 27.6562 2.34375 27.1305 2.34375 26.4844V11.0156H27.6562V13.4824C28.5403 14.0561 29.3312 14.7618 30 15.572V5.85938C30 3.92086 28.4229 2.34375 26.4844 2.34375ZM27.6562 8.67188H2.34375V5.85938C2.34375 5.2132 2.86945 4.6875 3.51562 4.6875H4.92188V7.03125H7.26562V4.6875H22.7344V7.03125H25.0781V4.6875H26.4844C27.1305 4.6875 27.6562 5.2132 27.6562 5.85938V8.67188Z" fill="#1E1E1E"/>
<path d="M22.0898 14.1797C17.7282 14.1797 14.1797 17.7282 14.1797 22.0898C14.1797 26.4515 17.7282 30 22.0898 30C26.4515 30 30 26.4515 30 22.0898C30 17.7282 26.4515 14.1797 22.0898 14.1797ZM22.0898 27.6562C19.0205 27.6562 16.5234 25.1592 16.5234 22.0898C16.5234 19.0205 19.0205 16.5234 22.0898 16.5234C25.1592 16.5234 27.6562 19.0205 27.6562 22.0898C27.6562 25.1592 25.1592 27.6562 22.0898 27.6562Z" fill="#1E1E1E"/>
<path d="M23.2031 18.1641H20.8594V23.2617H25.1953V20.918H23.2031V18.1641Z" fill="#1E1E1E"/>
<path d="M11.4844 18.1641H9.14062V20.5078H11.4844V18.1641Z" fill="#1E1E1E"/>
<path d="M6.79688 18.1641H4.45312V20.5078H6.79688V18.1641Z" fill="#1E1E1E"/>
<path d="M6.79688 13.4766H4.45312V15.8203H6.79688V13.4766Z" fill="#1E1E1E"/>
<path d="M6.79688 22.8516H4.45312V25.1953H6.79688V22.8516Z" fill="#1E1E1E"/>
<path d="M11.4844 13.4766H9.14062V15.8203H11.4844V13.4766Z" fill="#1E1E1E"/>
<path d="M11.4844 22.8516H9.14062V25.1953H11.4844V22.8516Z" fill="#1E1E1E"/>
</svg>
