<svg width="30" height="30" viewBox="0 0 30 30" fill="none" xmlns="http://www.w3.org/2000/svg">
<path d="M30 16.9768V13.0232L26.0043 11.9603C25.7549 11.0579 25.3945 10.1915 24.9265 9.37097L26.97 5.82166L24.1783 3.02966L20.629 5.07349C19.8085 4.60547 18.9421 4.24512 18.0397 3.99573L16.9768 0H13.0232L11.9603 3.99573C11.0579 4.24512 10.1915 4.60547 9.37097 5.07349L5.82166 3.02966L3.03003 5.82166L5.07349 9.37097C4.60547 10.1915 4.24475 11.0579 3.99573 11.9603L0 13.0232V16.9768L3.99573 18.0397C4.24512 18.9421 4.60547 19.8085 5.07349 20.629L3.03003 24.1783L5.82166 26.9703L9.37097 24.9265C10.1915 25.3945 11.0579 25.7552 11.9603 26.0043L13.0232 30H16.9768L18.0397 26.0043C18.9421 25.7549 19.8085 25.3945 20.629 24.9265L24.1783 26.97L26.9703 24.1783L24.9269 20.629C25.3945 19.8085 25.7552 18.9421 26.0043 18.0397L30 16.9768ZM24.0286 16.14L23.8817 16.849C23.6525 17.9568 23.2159 19.0062 22.5844 19.968L22.1887 20.571L24.0427 23.7911L23.7911 24.0427L20.5708 22.1885L19.9678 22.5844C19.0062 23.2159 17.9568 23.6525 16.849 23.8817L16.14 24.0286L15.175 27.6562H14.825L13.86 24.0286L13.151 23.8817C12.0432 23.6525 10.9938 23.2159 10.0322 22.5844L9.4292 22.1885L6.20892 24.0427L5.95734 23.7911L7.81128 20.571L7.41559 19.968C6.78406 19.0062 6.34753 17.957 6.11829 16.849L5.97144 16.14L2.34375 15.175V14.825L5.97144 13.86L6.11829 13.151C6.34753 12.0432 6.78406 10.9938 7.41559 10.032L7.81128 9.42902L5.95715 6.20874L6.20874 5.95715L9.42902 7.81128L10.032 7.41559C10.9938 6.78406 12.043 6.34753 13.151 6.11829L13.86 5.97144L14.825 2.34375H15.175L16.14 5.97144L16.849 6.11829C17.9568 6.34753 19.0062 6.78406 19.9678 7.41559L20.5708 7.81128L23.7911 5.95715L24.0427 6.20874L22.1885 9.42902L22.5844 10.032C23.2159 10.9938 23.6525 12.0432 23.8817 13.151L24.0286 13.86L27.6562 14.825V15.175L24.0286 16.14ZM19.1713 9.93494L20.9068 11.5104L13.2898 19.8997L8.9176 15.7291L10.5355 14.0332L13.1693 16.5456L19.1713 9.93494Z" fill="#1E1E1E"/>
</svg>
