<svg width="22" height="30" viewBox="0 0 22 30" fill="none" xmlns="http://www.w3.org/2000/svg">
<path d="M18.5714 2.34375H14.2614C13.7895 0.979614 12.5185 0 11.0286 0C9.53862 0 8.26763 0.979614 7.79576 2.34375H3.42857C1.53795 2.34375 0 3.92075 0 5.85938V26.4844C0 28.423 1.53795 30 3.42857 30H18.575C20.4636 29.9979 22 28.4209 22 26.4844V5.85938C22 3.92075 20.4621 2.34375 18.5714 2.34375ZM9.88571 4.6875V3.51562C9.88571 2.86949 10.3984 2.34375 11.0286 2.34375C11.6587 2.34375 12.1714 2.86949 12.1714 3.51562V4.6875H14.4571V6.97266H7.6V4.6875H9.88571ZM19.7143 26.4844C19.7143 27.1298 19.202 27.6556 18.5739 27.6562H3.42857C2.79844 27.6562 2.28571 27.1305 2.28571 26.4844V5.85938C2.28571 5.21324 2.79844 4.6875 3.42857 4.6875H5.31429V9.31641H16.7429V4.6875H18.5714C19.2016 4.6875 19.7143 5.21324 19.7143 5.85938V26.4844ZM15.3833 13.4789L17.0737 15.0563L9.75424 23.3034L4.91964 18.5083L6.50893 16.8237L9.64978 19.9388L15.3833 13.4789Z" fill="#1E1E1E"/>
</svg>
