<svg width="31" height="30" viewBox="0 0 31 30" fill="none" xmlns="http://www.w3.org/2000/svg">
<path d="M29.5391 17.0616L30.028 15.7891L28.6967 15.496C28.5686 15.468 28.0932 15.3698 27.4376 15.3104C28.4979 13.3669 28.5455 10.95 28.5472 10.8371L28.5664 9.47412L27.2157 9.65886C27.1205 9.67206 26.8366 9.71439 26.4413 9.80347C26.5828 9.34582 26.6733 8.85501 26.6792 8.34055C26.7074 5.84103 25.0075 3.35323 24.9351 3.24858L24.1647 2.13426L23.1726 3.05669C23.0646 3.15694 22.6369 3.56565 22.1473 4.17559C22.1237 4.1316 22.0995 4.0878 22.0742 4.04418C20.8191 1.8828 18.085 0.615809 17.9694 0.562842L16.737 0L16.3569 1.30035C16.2486 1.6713 15.3349 4.98879 16.6322 7.22293C17.4818 8.68621 19.0184 9.45689 20.0591 9.83077C20.6289 11.1755 20.8682 11.9269 20.8682 14.4079C20.8682 18.2542 18.3671 22.9873 15.0257 25.6278C11.6711 22.9873 9.15961 18.2542 9.15961 14.4079C9.15961 11.9267 9.39916 11.1755 9.96878 9.83077C11.0096 9.45689 12.5462 8.68621 13.3959 7.22293C14.6931 4.98879 13.7795 1.6713 13.671 1.30035L13.291 0L12.0587 0.562842C11.943 0.615626 9.20892 1.8828 7.95402 4.04418C7.92855 4.0878 7.90417 4.1316 7.88071 4.17559C7.391 3.56565 6.96341 3.15694 6.85546 3.05669L5.8632 2.13426L5.09271 3.24858C5.02068 3.35323 3.32042 5.84103 3.34865 8.34055C3.35469 8.85501 3.44505 9.34582 3.58672 9.80347C3.19121 9.71439 2.9075 9.67206 2.81238 9.65886L1.46163 9.47412L1.48088 10.837C1.48252 10.95 1.53018 13.3665 2.59043 15.3104C1.93467 15.3698 1.45925 15.4678 1.3315 15.496L0 15.7891L0.488799 17.0616C0.533152 17.1765 1.565 19.8184 3.51836 21.2419C2.70095 21.7872 2.13499 22.3213 2.01219 22.4406L1.03441 23.3907L2.11996 24.2152C2.22076 24.2917 4.61875 26.0922 7.10508 26.1864C7.16557 26.1886 7.22568 26.1897 7.28561 26.1897C8.79178 26.1897 10.1139 25.4811 10.9616 24.8833C11.5888 25.6448 12.252 26.3306 12.9415 26.9338C11.9568 27.3944 10.9341 27.6553 9.90702 27.6553V30C11.6122 30 13.3631 29.4634 15.0322 28.4636C16.7051 29.4634 18.4589 30 20.165 30V27.6553C19.1333 27.6553 18.1063 27.3942 17.1171 26.9334C17.8009 26.333 18.4589 25.6505 19.0807 24.893C19.9289 25.489 21.2445 26.1897 22.7422 26.1897C22.8022 26.1897 22.8623 26.1886 22.9228 26.1864C25.4091 26.0922 27.8071 24.2917 27.9079 24.2152L28.9936 23.3907L28.0158 22.4406C27.8931 22.3213 27.3276 21.787 26.51 21.2416C28.4632 19.8179 29.4949 17.1765 29.5391 17.0616ZM6.14087 13.6721C6.57981 14.2796 6.70719 15.113 6.71141 15.8171C6.08497 15.5915 5.34819 15.2081 4.89019 14.5742C4.44391 13.9563 4.17431 13.1136 4.01816 12.3616C4.82604 12.6377 5.70284 13.066 6.14087 13.6721ZM9.98143 5.22155C10.3744 4.54508 11.0578 3.9432 11.6976 3.48922C11.7827 4.36473 11.7552 5.37917 11.3681 6.04556C10.9818 6.71122 10.2464 7.17271 9.58793 7.46321C9.53222 6.78105 9.5762 5.91947 9.98143 5.22155ZM6.27942 5.95063C6.80139 6.66119 7.29752 7.54733 7.30632 8.31178C7.31494 9.08154 6.91979 9.8546 6.50284 10.4411C6.10568 9.88337 5.70247 9.12076 5.69349 8.31398C5.68451 7.53267 5.96272 6.6676 6.27942 5.95063ZM4.99869 19.4167C4.35685 18.9849 3.80556 18.2754 3.39502 17.6149C4.25916 17.5929 5.24611 17.6921 5.8753 18.116C6.49752 18.5346 6.9066 19.2697 7.15695 19.9304C7.03049 19.9313 6.90476 19.9381 6.77922 19.9498C6.1909 19.9147 5.53569 19.7783 4.99869 19.4167ZM7.19397 23.8434C6.4211 23.814 5.57876 23.501 4.88194 23.1555C5.49207 22.7564 6.22132 22.3861 6.88955 22.296C6.97349 22.2985 7.05633 22.3002 7.13697 22.3002C7.24877 22.3002 7.35691 22.2978 7.46156 22.294C8.14921 22.3825 8.81194 22.7655 9.3242 23.1625C8.75457 23.5226 7.98664 23.8731 7.19397 23.8434ZM25.1377 14.5742C24.6786 15.2094 23.9416 15.593 23.315 15.8184C23.315 15.1414 23.4293 14.3057 23.887 13.6721C24.3221 13.07 25.2016 12.6413 26.0121 12.364C25.8563 13.1131 25.5867 13.9528 25.1377 14.5742ZM23.7484 5.95063C24.0655 6.6676 24.3433 7.53285 24.3347 8.31398C24.3256 9.12259 23.9222 9.88557 23.5248 10.4427C23.1211 9.88209 22.7127 9.1149 22.7217 8.31178C22.7303 7.54715 23.2268 6.66101 23.7484 5.95063ZM18.6598 6.04556C18.2754 5.38338 18.2487 4.36638 18.3333 3.4883C18.971 3.94026 19.6511 4.54086 20.0466 5.22155C20.4526 5.92057 20.4967 6.78142 20.4408 7.46321C19.7814 7.17271 19.0463 6.71086 18.6598 6.04556ZM22.8339 23.8434C22.039 23.8727 21.2718 23.5217 20.7022 23.1618C21.1932 22.7765 21.851 22.3836 22.5639 22.2938C22.6693 22.2978 22.7783 22.3002 22.8911 22.3002C22.9732 22.3002 23.0575 22.2983 23.1431 22.2958C23.8142 22.3854 24.5404 22.7551 25.151 23.1561C24.4559 23.5014 23.6135 23.8139 22.8339 23.8434ZM25.0294 19.4167C24.4949 19.7766 23.8448 19.9141 23.2587 19.9498C23.1302 19.9377 23.001 19.9311 22.8715 19.9302C23.122 19.2688 23.5309 18.5342 24.1526 18.116C24.7858 17.6897 25.7687 17.59 26.6343 17.6129C26.2236 18.274 25.6717 18.9847 25.0294 19.4167Z" fill="#1E1E1E"/>
</svg>
