<svg width="19" height="20" viewBox="0 0 19 20" fill="none" xmlns="http://www.w3.org/2000/svg">
<path d="M14.4096 5.21375L9.97627 0.21375C9.85593 0.07875 9.6824 0 9.5 0C9.3176 0 9.14407 0.07875 9.02373 0.21375L4.5904 5.21375C4.427 5.39875 4.38647 5.66 4.49033 5.88375C4.59293 6.10625 4.8184 6.25 5.06667 6.25H7.6V14.375C7.6 14.72 7.88373 15 8.23333 15H10.7667C11.1163 15 11.4 14.72 11.4 14.375V6.25H13.9333C14.1816 6.25 14.4071 6.1075 14.5097 5.88375C14.6123 5.66 14.5743 5.3975 14.4096 5.21375Z" fill="#5B7183"/>
<path d="M16.4667 13.75V17.5H2.53333V13.75H0V18.75C0 19.4412 0.567467 20 1.26667 20H17.7333C18.4338 20 19 19.4412 19 18.75V13.75H16.4667Z" fill="#5B7183"/>
</svg>
