<?xml version="1.0" encoding="utf-8"?><svg viewBox="0 0 513.64 513.64" xmlns="http://www.w3.org/2000/svg" xmlns:xlink="http://www.w3.org/1999/xlink"><style>:root>svg{display:none}:root>svg:target{display:block}</style><svg fill="none" viewBox="0 0 31 30" id="about-01" xmlns="http://www.w3.org/2000/svg"><path d="M29.54 17.062l.488-1.273-1.331-.293a10.65 10.65 0 00-1.26-.186c1.06-1.943 1.108-4.36 1.11-4.473l.02-1.363-1.351.185c-.096.013-.38.055-.775.144.142-.457.232-.948.238-1.462.028-2.5-1.671-4.988-1.744-5.092l-.77-1.115-.992.923c-.108.1-.536.509-1.026 1.119a4.526 4.526 0 00-.073-.132C20.82 1.883 18.085.616 17.97.563L16.737 0l-.38 1.3c-.108.371-1.022 3.689.275 5.923.85 1.463 2.386 2.234 3.427 2.608.57 1.345.81 2.096.81 4.577 0 3.846-2.502 8.58-5.843 11.22-3.355-2.64-5.866-7.374-5.866-11.22 0-2.481.24-3.232.809-4.577 1.04-.374 2.577-1.145 3.427-2.608 1.297-2.234.383-5.552.275-5.923l-.38-1.3-1.232.563c-.116.053-2.85 1.32-4.105 3.481a3.9 3.9 0 00-.073.132c-.49-.61-.918-1.02-1.026-1.12l-.992-.922-.77 1.115C5.02 3.353 3.32 5.84 3.349 8.34c.006.514.096 1.005.238 1.462a9.72 9.72 0 00-.775-.144l-1.35-.185.019 1.363c.002.113.05 2.53 1.11 4.473a10.58 10.58 0 00-1.26.186L0 15.789l.489 1.273c.044.114 1.076 2.756 3.03 4.18a11.235 11.235 0 00-1.507 1.199l-.978.95 1.086.824c.1.077 2.499 1.877 4.985 1.971.06.003.12.004.18.004 1.507 0 2.829-.709 3.677-1.307a17.52 17.52 0 001.98 2.05c-.985.461-2.008.722-3.035.722V30c1.705 0 3.456-.537 5.125-1.536 1.673 1 3.427 1.536 5.133 1.536v-2.345c-1.032 0-2.059-.26-3.048-.722.684-.6 1.342-1.282 1.964-2.04.848.596 2.163 1.297 3.661 1.297.06 0 .12-.001.18-.004 2.487-.094 4.885-1.894 4.986-1.97l1.086-.825-.978-.95a11.2 11.2 0 00-1.506-1.2c1.953-1.423 2.985-4.064 3.03-4.18zm-23.4-3.39c.44.608.567 1.441.571 2.145-.626-.226-1.363-.609-1.82-1.243-.447-.618-.717-1.46-.873-2.212.808.276 1.685.704 2.123 1.31zm3.841-8.45c.393-.677 1.077-1.279 1.717-1.733.085.876.057 1.89-.33 2.557-.386.665-1.122 1.127-1.78 1.417-.056-.682-.012-1.544.393-2.241zM6.28 5.95c.522.71 1.019 1.596 1.027 2.36.009.77-.386 1.544-.803 2.13-.397-.558-.8-1.32-.81-2.127-.008-.781.27-1.646.586-2.363zM5 19.417c-.642-.432-1.193-1.142-1.604-1.802.864-.022 1.851.077 2.48.501.623.419 1.032 1.154 1.282 1.814-.127.001-.252.008-.378.02-.588-.035-1.243-.172-1.78-.533zm2.195 4.426c-.773-.029-1.615-.342-2.312-.688.61-.399 1.34-.769 2.008-.859a8.353 8.353 0 00.572-.002c.687.088 1.35.471 1.862.869-.57.36-1.337.71-2.13.68zm17.944-9.269c-.46.635-1.196 1.019-1.823 1.244 0-.677.114-1.512.572-2.146.435-.602 1.315-1.03 2.125-1.308-.156.75-.425 1.589-.874 2.21zm-1.39-8.623c.317.717.595 1.582.587 2.363-.01.809-.413 1.572-.81 2.129-.404-.56-.812-1.328-.803-2.131.008-.765.505-1.651 1.026-2.361zm-5.088.095c-.385-.663-.411-1.68-.327-2.558.638.452 1.318 1.053 1.714 1.734.406.699.45 1.56.394 2.241-.66-.29-1.395-.752-1.781-1.417zm4.174 17.797c-.795.03-1.562-.321-2.132-.681.491-.386 1.149-.778 1.862-.868a8.613 8.613 0 00.58.002c.67.09 1.396.46 2.007.86-.695.345-1.538.658-2.317.687zm2.195-4.426c-.534.36-1.184.497-1.77.533a4.461 4.461 0 00-.387-.02c.25-.661.659-1.396 1.28-1.814.634-.426 1.617-.526 2.482-.503-.41.661-.962 1.372-1.605 1.804z" fill="#1E1E1E"/></svg><svg fill="none" viewBox="0 0 22 30" id="about-02" xmlns="http://www.w3.org/2000/svg"><path d="M18.571 2.344h-4.31C13.79.98 12.52 0 11.03 0c-1.49 0-2.761.98-3.233 2.344H3.429C1.538 2.344 0 3.92 0 5.859v20.625C0 28.423 1.538 30 3.429 30h15.146C20.464 29.998 22 28.42 22 26.484V5.86c0-1.938-1.538-3.515-3.429-3.515zM9.886 4.688V3.516c0-.647.512-1.172 1.143-1.172.63 0 1.142.525 1.142 1.172v1.171h2.286v2.286H7.6V4.688h2.286zm9.828 21.796c0 .646-.512 1.172-1.14 1.172H3.429c-.63 0-1.143-.525-1.143-1.172V5.86c0-.646.512-1.171 1.143-1.171h1.885v4.628h11.429V4.687h1.828c.63 0 1.143.526 1.143 1.172v20.625zm-4.33-13.005l1.69 1.577-7.32 8.247-4.834-4.795 1.589-1.684 3.14 3.115 5.734-6.46z" fill="#1E1E1E"/></svg><svg fill="none" viewBox="0 0 30 30" id="about-03" xmlns="http://www.w3.org/2000/svg"><path d="M30 16.977v-3.954l-3.996-1.063c-.25-.902-.61-1.769-1.078-2.589l2.044-3.55-2.792-2.791-3.549 2.043a11.282 11.282 0 00-2.59-1.077L16.978 0h-3.954L11.96 3.996c-.902.25-1.769.61-2.589 1.077L5.821 3.03 3.03 5.822 5.073 9.37c-.468.82-.828 1.687-1.077 2.59L0 13.022v3.954l3.996 1.063c.25.902.61 1.768 1.077 2.589l-2.043 3.55 2.792 2.791 3.549-2.043c.82.468 1.687.828 2.59 1.077L13.022 30h3.954l1.063-3.996c.902-.25 1.768-.61 2.589-1.078l3.55 2.044 2.791-2.792-2.043-3.549c.468-.82.828-1.687 1.077-2.59L30 16.978zm-5.971-.837l-.147.709a8.977 8.977 0 01-1.298 3.119l-.395.603 1.854 3.22-.252.252-3.22-1.854-.603.395a8.975 8.975 0 01-3.119 1.298l-.709.147-.965 3.627h-.35l-.965-3.627-.709-.147a8.975 8.975 0 01-3.119-1.298l-.603-.395-3.22 1.854-.252-.252 1.854-3.22-.395-.603a8.976 8.976 0 01-1.298-3.119l-.147-.709-3.627-.965v-.35l3.627-.965.147-.709a8.977 8.977 0 011.298-3.119l.395-.603-1.854-3.22.252-.252 3.22 1.854.603-.395a8.976 8.976 0 013.119-1.298l.709-.147.965-3.627h.35l.965 3.627.709.147a8.975 8.975 0 013.119 1.298l.603.395 3.22-1.854.252.252-1.854 3.22.395.603a8.977 8.977 0 011.298 3.119l.147.709 3.627.965v.35l-3.627.965zM19.17 9.935l1.736 1.575-7.617 8.39-4.372-4.17 1.618-1.697 2.633 2.513 6.002-6.611z" fill="#1E1E1E"/></svg><svg fill="none" viewBox="0 0 30 30" id="about-04" xmlns="http://www.w3.org/2000/svg"><path d="M16.172 13.477h-2.344v2.343h2.344v-2.343z" fill="#1E1E1E"/><path d="M26.484 2.344h-1.406V0h-2.344v2.344H7.266V0H4.922v2.344H3.516A3.52 3.52 0 000 5.859v20.625A3.52 3.52 0 003.516 30h12.056a10.335 10.335 0 01-2.09-2.344H3.516a1.173 1.173 0 01-1.172-1.172V11.016h25.312v2.466c.884.574 1.675 1.28 2.344 2.09V5.859a3.52 3.52 0 00-3.516-3.515zm1.172 6.328H2.344V5.859c0-.646.525-1.171 1.172-1.171h1.406V7.03h2.344V4.688h15.468V7.03h2.344V4.688h1.406c.646 0 1.172.525 1.172 1.171v2.813z" fill="#1E1E1E"/><path d="M22.09 14.18c-4.362 0-7.91 3.548-7.91 7.91 0 4.361 3.548 7.91 7.91 7.91C26.45 30 30 26.451 30 22.09c0-4.362-3.549-7.91-7.91-7.91zm0 13.476a5.573 5.573 0 01-5.567-5.566 5.573 5.573 0 015.567-5.567 5.573 5.573 0 015.566 5.567 5.573 5.573 0 01-5.566 5.566z" fill="#1E1E1E"/><path d="M23.203 18.164H20.86v5.098h4.336v-2.344h-1.992v-2.754zM11.484 18.164H9.141v2.344h2.343v-2.344zM6.797 18.164H4.453v2.344h2.344v-2.344zM6.797 13.477H4.453v2.343h2.344v-2.343zM6.797 22.852H4.453v2.343h2.344v-2.343zM11.484 13.477H9.141v2.343h2.343v-2.343zM11.484 22.852H9.141v2.343h2.343v-2.343z" fill="#1E1E1E"/></svg><svg fill="none" viewBox="0 0 30 34" id="about-05" xmlns="http://www.w3.org/2000/svg"><path d="M30 24.16h-1.923v-2.843h-3.07a10.945 10.945 0 00-3.488-5.166 10.468 10.468 0 00-2.875-1.676 6.364 6.364 0 002.42-5.016v-.09h1.469V7.396H21.32c-.083-2.485-1.627-4.68-3.959-5.692V0h-4.88v1.715a6.43 6.43 0 00-2.629 1.97 6.25 6.25 0 00-1.33 3.71H7.312V9.37H8.78v.089c0 2.049.956 3.872 2.433 5.026a10.473 10.473 0 00-2.85 1.666 10.947 10.947 0 00-3.487 5.166H1.868v2.842H0v6.76h1.868V34h26.209v-3.081H30v-6.76zm-18.088-7.835a8.425 8.425 0 013.029-.556c1.083 0 2.132.2 3.112.59v1.461h-6.14v-1.495zm.57-12.41V5.48h1.922V1.975h1.037V5.48h1.921V3.927c1.198.791 1.966 2.062 2.036 3.468h-8.952a4.288 4.288 0 012.036-3.48zm-1.78 5.455h8.44v.089c0 2.39-1.893 4.336-4.22 4.336s-4.22-1.945-4.22-4.336v-.09zm-1.143 8.327c.141-.115.285-.226.431-.33v2.428h9.985v-2.368a8.94 8.94 0 012.985 3.89H6.922a8.945 8.945 0 012.637-3.62zM2.608 28.944h-.686v-2.81h.686c.754 0 1.367.63 1.367 1.405s-.613 1.405-1.367 1.405zm1.183 1.748c1.23-.49 2.106-1.717 2.106-3.153 0-1.435-.875-2.663-2.106-3.153v-1.094h10.22v8.733H3.792v-1.333zm12.142 1.334v-8.734h10.221v1.117a3.386 3.386 0 00-2.051 3.13c0 1.414.85 2.627 2.051 3.13v1.357h-10.22zm12.145-3.082h-.686c-.754 0-1.367-.63-1.367-1.405s.613-1.405 1.367-1.405h.686v2.81z" fill="#1E1E1E"/></svg><svg fill="none" viewBox="0 0 30 23" id="about-06" xmlns="http://www.w3.org/2000/svg"><path d="M30 8.79h-1.875V3.515h-3.516V0H2.637A2.64 2.64 0 000 2.637v15.82a4.4 4.4 0 004.395 4.395h23.73v-5.274H30V8.79zM2.637 1.757h20.215v1.758H2.637a.88.88 0 010-1.758zm23.73 19.336H4.395a2.64 2.64 0 01-2.637-2.637V5.122c.275.098.57.151.879.151h23.73V8.79h-4.394a4.4 4.4 0 00-4.395 4.395 4.4 4.4 0 004.395 4.394h4.394v3.516zm1.875-5.274h-6.27a2.64 2.64 0 01-2.636-2.636 2.64 2.64 0 012.637-2.637h6.27v5.273z" fill="#000"/><path d="M21.094 12.305h1.758v1.758h-1.758v-1.758z" fill="#000"/></svg><svg fill="none" viewBox="0 0 23 19" id="check" xmlns="http://www.w3.org/2000/svg"><path d="M2 9.83L8.433 16 21 2" stroke="#FFB800" stroke-width="4"/></svg><svg fill="none" viewBox="0 0 11 9" id="check-white" xmlns="http://www.w3.org/2000/svg"><path d="M1 3.936L4.539 7l5.463-6" stroke="#fff" stroke-width="2"/></svg><svg fill="none" viewBox="0 0 16 16" id="close" xmlns="http://www.w3.org/2000/svg"><path d="M1.071 1.071l14.142 14.142m0-14.142L1.071 15.213" stroke="#1D0000" stroke-width="2"/></svg><svg fill="none" viewBox="0 0 12 8" id="dropdown" xmlns="http://www.w3.org/2000/svg"><path d="M1 1l5 5 5-5" stroke="#5B7183" stroke-width="2"/></svg><svg fill="none" viewBox="0 0 19 20" id="file" xmlns="http://www.w3.org/2000/svg"><path d="M14.41 5.214l-4.434-5a.64.64 0 00-.952 0l-4.434 5a.617.617 0 00-.1.67.634.634 0 00.577.366H7.6v8.125a.63.63 0 00.633.625h2.534a.63.63 0 00.633-.625V6.25h2.533a.632.632 0 00.577-.366.617.617 0 00-.1-.67z" fill="#5B7183"/><path d="M16.467 13.75v3.75H2.533v-3.75H0v5C0 19.441.567 20 1.267 20h16.466c.7 0 1.267-.559 1.267-1.25v-5h-2.533z" fill="#5B7183"/></svg><svg viewBox="0 0 513.64 513.64" id="phone" xmlns="http://www.w3.org/2000/svg"><path fill="#FFF" d="M499.66 376.96l-71.68-71.68c-25.6-25.6-69.12-15.359-79.36 17.92-7.68 23.041-33.28 35.841-56.32 30.72-51.2-12.8-120.32-79.36-133.12-133.12-7.68-23.041 7.68-48.641 30.72-56.32 33.28-10.24 43.52-53.76 17.92-79.36l-71.68-71.68c-20.48-17.92-51.2-17.92-69.12 0L18.38 62.08c-48.64 51.2 5.12 186.88 125.44 307.2s256 176.641 307.2 125.44l48.64-48.64c17.921-20.48 17.921-51.2 0-69.12z"/></svg><svg fill="none" viewBox="0 0 104 104" id="play" xmlns="http://www.w3.org/2000/svg"><circle cx="52" cy="52" r="51" stroke="#fff" stroke-width="2"/><path d="M40.333 35.333L73.667 52 40.333 68.667V35.333z" fill="#fff"/></svg><svg fill="none" viewBox="0 0 30 30" id="search" xmlns="http://www.w3.org/2000/svg"><path d="M12.301 0c6.783 0 12.302 5.518 12.302 12.301 0 2.97-1.059 5.699-2.818 7.827L30 28.343 28.343 30l-8.215-8.215a12.245 12.245 0 01-7.827 2.818C5.518 24.603 0 19.084 0 12.3 0 5.518 5.518 0 12.301 0zm0 22.26c5.491 0 9.958-4.468 9.958-9.959 0-5.49-4.467-9.958-9.958-9.958-5.49 0-9.958 4.467-9.958 9.958 0 5.491 4.467 9.958 9.958 9.958z" fill="#fff"/></svg><svg viewBox="0 0 512 512" id="trash" xmlns="http://www.w3.org/2000/svg"><g fill="#5B7183"><path d="M424 64h-88V48c0-26.467-21.533-48-48-48h-64c-26.467 0-48 21.533-48 48v16H88c-22.056 0-40 17.944-40 40v56c0 8.836 7.164 16 16 16h8.744l13.823 290.283C87.788 491.919 108.848 512 134.512 512h242.976c25.665 0 46.725-20.081 47.945-45.717L439.256 176H448c8.836 0 16-7.164 16-16v-56c0-22.056-17.944-40-40-40zM208 48c0-8.822 7.178-16 16-16h64c8.822 0 16 7.178 16 16v16h-96zM80 104c0-4.411 3.589-8 8-8h336c4.411 0 8 3.589 8 8v40H80zm313.469 360.761A15.98 15.98 0 01377.488 480H134.512a15.98 15.98 0 01-15.981-15.239L104.78 176h302.44z"/><path d="M256 448c8.836 0 16-7.164 16-16V224c0-8.836-7.164-16-16-16s-16 7.164-16 16v208c0 8.836 7.163 16 16 16zM336 448c8.836 0 16-7.164 16-16V224c0-8.836-7.164-16-16-16s-16 7.164-16 16v208c0 8.836 7.163 16 16 16zM176 448c8.836 0 16-7.164 16-16V224c0-8.836-7.164-16-16-16s-16 7.164-16 16v208c0 8.836 7.163 16 16 16z"/></g></svg></svg>